<?xml version="1.0" encoding="UTF-8" standalone="no"?>
<!-- Created with Inkscape (http://www.inkscape.org/) -->

<svg
   xmlns:dc="http://purl.org/dc/elements/1.1/"
   xmlns:cc="http://creativecommons.org/ns#"
   xmlns:rdf="http://www.w3.org/1999/02/22-rdf-syntax-ns#"
   xmlns:svg="http://www.w3.org/2000/svg"
   xmlns="http://www.w3.org/2000/svg"
   xmlns:sodipodi="http://sodipodi.sourceforge.net/DTD/sodipodi-0.dtd"
   xmlns:inkscape="http://www.inkscape.org/namespaces/inkscape"
   id="svg8"
   version="1.1"
   viewBox="0 0 210 297"
   height="297mm"
   width="210mm"
   inkscape:version="0.92.5 (2060ec1f9f, 2020-04-08)"
   sodipodi:docname="goggles.svg">
  <defs
     id="defs2" />
  <sodipodi:namedview
     id="base"
     pagecolor="#ffffff"
     bordercolor="#666666"
     borderopacity="1.0"
     inkscape:pageopacity="0.0"
     inkscape:pageshadow="2"
     inkscape:zoom="0.24748737"
     inkscape:cx="-281.03487"
     inkscape:cy="739.05237"
     inkscape:document-units="mm"
     inkscape:current-layer="layer1"
     showgrid="false"
     inkscape:window-width="1440"
     inkscape:window-height="843"
     inkscape:window-x="0"
     inkscape:window-y="0"
     inkscape:window-maximized="1" />
  <metadata
     id="metadata5">
    <rdf:RDF>
      <cc:Work
         rdf:about="">
        <dc:format>image/svg+xml</dc:format>
        <dc:type
           rdf:resource="http://purl.org/dc/dcmitype/StillImage" />
        <dc:title></dc:title>
      </cc:Work>
    </rdf:RDF>
  </metadata>
  <g
     inkscape:label="Layer 1"
     inkscape:groupmode="layer"
     id="layer1">
    <path
       style="fill:#000000;stroke-width:0.26458335"
       d="m 137.83412,94.731268 c -5.66341,-0.28829 -15.09783,-0.99752 -17.33021,-1.30279 -1.01865,-0.1393 -3.04271,-0.38238 -4.49792,-0.54018 -16.13757,-1.7499 -35.12697,-7.20295 -38.604026,-11.08563 -0.277215,-0.30955 -0.616273,-0.56283 -0.753462,-0.56283 -0.336929,0 -4.058751,-2.63747 -5.28092,-3.74232 -0.540186,-0.48834 -1.135499,-1.01651 -1.322916,-1.17371 -1.128467,-0.94656 -6.823049,-7.09255 -6.823049,-7.36392 0,-0.18029 -0.297656,-0.60744 -0.661458,-0.94921 -0.363802,-0.34178 -0.661459,-0.7719 -0.661459,-0.95584 0,-0.18393 -0.332629,-0.6986 -0.739174,-1.14371 -0.406546,-0.44511 -1.148514,-1.61332 -1.64882,-2.59602 -0.500306,-0.9827 -1.120177,-2.01753 -1.377492,-2.29963 -0.257316,-0.28211 -0.467847,-0.613 -0.467847,-0.73532 0,-0.12232 -0.773906,-1.41498 -1.719792,-2.87259 -0.945885,-1.45761 -1.719791,-2.81661 -1.719791,-3.02 0,-0.20339 -0.237369,-0.53606 -0.527484,-0.73927 -0.290116,-0.2032 -0.448866,-0.44808 -0.352777,-0.54417 0.09609,-0.0961 0.0358,-0.1747 -0.133975,-0.1747 -0.169775,0 -0.308681,-0.12701 -0.308681,-0.28224 0,-0.15523 -0.307864,-0.68586 -0.684141,-1.17919 -0.376277,-0.49332 -0.616313,-1.0067 -0.533413,-1.14083 0.183364,-0.29669 -0.496676,-1.71646 -1.036895,-2.1648 -0.215262,-0.17865 -0.391385,-0.6079 -0.391385,-0.95388 0,-0.34598 -0.110341,-0.62906 -0.245205,-0.62906 -0.256206,0 -1.077711,-1.47415 -1.077711,-1.93391 0,-0.1458 -0.297656,-0.65535 -0.661459,-1.13232 -0.363802,-0.47697 -0.661458,-1.04102 -0.661458,-1.25344 0,-0.21242 -0.178594,-0.45475 -0.396875,-0.53851 -0.218281,-0.0838 -0.396875,-0.31857 -0.396875,-0.5218 0,-0.20322 -0.246766,-0.68321 -0.54837,-1.06663 -0.301604,-0.38343 -0.461743,-0.69714 -0.355867,-0.69714 0.105875,0 0.02522,-0.20836 -0.179234,-0.46302 -0.640266,-0.79749 -0.940755,-1.47664 -1.278041,-2.88855 -0.179634,-0.75195 -0.555218,-1.57407 -0.834631,-1.82694 -0.279413,-0.25287 -0.508024,-0.79146 -0.508024,-1.19688 0,-0.40543 -0.119062,-0.81072 -0.264583,-0.90065 -0.145521,-0.0899 -0.264583,-0.54941 -0.264583,-1.02104 0,-0.47163 -0.139049,-0.99655 -0.309002,-1.16651 -0.497147,-0.49714 -1.04617,-2.18292 -1.294516,-3.97481 -0.126873,-0.91544 -0.309941,-1.79269 -0.406816,-1.94944 -0.20648,-0.33409 -0.49425,-1.41265 -1.153585,-4.32362 -0.554534,-2.44827 -1.584788,-6.22572 -2.525674,-9.26042 C 36.533583,9.2996383 36.061334,7.3350983 35.845082,6.0981783 35.344192,3.2331713 34.823566,1.3277853 34.280191,0.37098627 34.044335,-0.04431973 33.631464,-1.1108947 33.3627,-1.9991807 31.612366,-7.7841627 26.154994,-10.873642 16.588804,-11.495066 l -2.844271,-0.184764 v -7.475754 -7.475753 l 3.770313,-0.225124 c 2.073671,-0.123818 5.55845,-0.230849 7.743952,-0.237848 3.709462,-0.01188 4.02406,-0.0523 4.732036,-0.608037 0.417117,-0.327422 0.861985,-0.595312 0.988595,-0.595312 0.126609,0 0.80385,-0.276739 1.50498,-0.614975 1.14859,-0.554098 2.37155,-0.966973 7.586166,-2.561109 0.873125,-0.266919 2.778125,-0.92031 4.233333,-1.451979 1.455209,-0.531669 3.538803,-1.139035 4.630209,-1.349702 1.091406,-0.210668 3.115469,-0.734478 4.497917,-1.164024 1.382447,-0.429546 3.88276,-0.964321 5.55625,-1.188389 1.673489,-0.224068 3.995208,-0.653653 5.159375,-0.954633 1.164166,-0.30098 3.426354,-0.644132 5.027083,-0.762559 1.600729,-0.118428 4.339167,-0.47009 6.085417,-0.781471 4.734142,-0.844163 8.245237,-1.304875 10.31875,-1.353986 1.018646,-0.02413 2.685521,-0.200929 3.704167,-0.392895 1.018646,-0.191967 3.876146,-0.480376 6.35,-0.640911 2.473854,-0.160534 5.509944,-0.400317 6.746874,-0.53285 2.33975,-0.250697 6.49033,-0.539643 17.4625,-1.215666 8.49996,-0.523704 28.19987,-0.949041 35.71875,-0.771197 13.42653,0.317578 27.64542,0.893771 35.58646,1.442073 2.18281,0.150716 6.5286,0.39012 9.65729,0.53201 3.1287,0.141889 6.76011,0.370259 8.0698,0.507488 2.80698,0.294116 8.57303,0.742249 13.75833,1.069289 2.03729,0.128492 6.08542,0.176489 8.99583,0.106659 2.91042,-0.06983 7.07761,-0.0027 9.26042,0.149252 2.18281,0.151918 7.12391,0.468284 10.98021,0.703034 12.83171,0.781124 17.9543,1.309819 18.80825,1.941168 0.97905,0.723848 1.74988,0.669273 4.9381,-0.34962 l 0.59531,-0.19025 v 10.601163 10.601163 h -2.6229 c -2.82571,0 -11.40494,0.921883 -12.14168,1.304687 -0.24692,0.128302 -0.98474,0.372769 -1.63958,0.543264 -1.11688,0.290785 -4.57499,1.747967 -5.15938,2.174063 -4.76793,3.4764473 -6.69857,9.0523753 -8.45557,24.420699 -0.92645,8.10365 -1.08904,9.31637 -1.85877,13.86457 -2.14189,12.65606 -6.70992,32.30024 -8.98119,38.62234 -0.22876,0.63676 -0.41593,1.31969 -0.41593,1.51764 0,0.66373 -2.85884,6.38365 -4.01541,8.03396 -0.62918,0.89778 -1.32775,1.9129 -1.55237,2.25582 -0.49272,0.7522 -5.3522,5.71444 -6.86569,7.01087 -1.87907,1.60959 -5.57442,3.66564 -9.65923,5.37432 -5.63099,2.35543 -19.10634,4.736 -34.92501,6.16988 -5.14499,0.46636 -33.06705,0.71695 -40.08437,0.35973 z m 30.95625,-8.99054 c 11.80579,-0.63483 15.95295,-0.98523 22.19229,-1.87504 5.05078,-0.72031 16.17168,-3.17419 17.48029,-3.85711 0.37201,-0.19414 0.8795,-0.35371 1.12776,-0.35461 0.24825,-7.9e-4 1.03167,-0.34379 1.74093,-0.76198 0.70926,-0.41819 1.7563,-0.92047 2.32675,-1.11618 6.67895,-2.29135 12.54606,-11.63254 15.85506,-25.24326 0.53068,-2.18281 1.18771,-4.80219 1.46008,-5.82083 1.74682,-6.5331 4.14914,-22.05467 4.75023,-30.69167 0.90686,-13.0307027 0.84075,-24.2803437 -0.16639,-28.310414 -0.2182,-0.873125 -0.4951,-2.004219 -0.61534,-2.513542 -1.47789,-6.260386 -7.8373,-11.691798 -16.69544,-14.259169 -4.78907,-1.388023 -14.04797,-3.195861 -19.17461,-3.74392 -1.59348,-0.17035 -2.98293,-0.361334 -3.08768,-0.42441 -0.23271,-0.140136 -3.69032,-0.575405 -7.0856,-0.891986 -1.38244,-0.128901 -3.5851,-0.361243 -4.89479,-0.516315 -13.63521,-1.614464 -41.72452,-2.394451 -58.20833,-1.616337 -9.85323,0.465119 -26.477245,1.753428 -31.176499,2.416081 -0.994259,0.140203 -1.892731,0.20239 -1.996604,0.138193 -0.10387,-0.0642 -1.790697,0.117837 -3.748505,0.404519 -1.957806,0.286682 -4.452615,0.645017 -5.544021,0.7963 -4.965047,0.68822 -7.318024,1.127999 -12.073539,2.256585 -2.934573,0.696437 -7.63475,2.096734 -8.361934,2.491223 -0.252687,0.13708 -0.591828,0.249236 -0.753644,0.249236 -0.161819,0 -1.264764,0.463463 -2.450987,1.029918 -1.186225,0.566456 -3.049741,1.306099 -4.141147,1.643651 -1.350415,0.417661 -2.36475,0.940713 -3.175,1.637221 -5.831586,5.012968 -6.236737,5.460606 -6.874565,7.59546 -1.894846,6.3421953 -1.531472,17.6229593 0.903406,28.045836 2.468266,10.56578 4.940649,18.12835 8.34712,25.53229 0.401717,0.87312 1.069131,2.36141 1.483143,3.30729 0.414012,0.94589 1.173599,2.42119 1.68797,3.27844 1.532684,2.55441 2.125843,3.66648 2.125843,3.98561 0,0.42473 3.09462,5.42781 3.862295,6.24418 0.349591,0.37176 0.635622,0.76763 0.635622,0.87971 0,0.34659 2.384978,3.92915 3.543964,5.32352 0.604779,0.7276 1.411719,1.79917 1.793197,2.38125 2.965048,4.52426 11.983744,11.25933 18.592229,13.88451 15.109306,6.00205 52.648466,9.96354 80.316446,8.47575 z"
       id="path3855"
       inkscape:connector-curvature="0" />
    <path
       inkscape:connector-curvature="0"
       id="path3857"
       d="m -110.34506,94.731268 c 5.66341,-0.28829 15.097833,-0.99752 17.330213,-1.30279 1.01865,-0.1393 3.04271,-0.38238 4.49792,-0.54018 16.13757,-1.7499 35.12697,-7.20295 38.60403,-11.08563 0.27721,-0.30955 0.61627,-0.56283 0.75346,-0.56283 0.33693,0 4.05875,-2.63747 5.28092,-3.74232 0.54019,-0.48834 1.1355,-1.01651 1.32292,-1.17371 1.12846,-0.94656 6.82305,-7.09255 6.82305,-7.36392 0,-0.18029 0.29765,-0.60744 0.66145,-0.94921 0.36381,-0.34178 0.66146,-0.7719 0.66146,-0.95584 0,-0.18393 0.33263,-0.6986 0.73918,-1.14371 0.40654,-0.44511 1.14851,-1.61332 1.64882,-2.59602 0.5003,-0.9827 1.12017,-2.01753 1.37749,-2.29963 0.25731,-0.28211 0.46785,-0.613 0.46785,-0.73532 0,-0.12232 0.7739,-1.41498 1.71979,-2.87259 0.94588,-1.45761 1.71979,-2.81661 1.71979,-3.02 0,-0.20339 0.23737,-0.53606 0.52748,-0.73927 0.29012,-0.2032 0.44887,-0.44808 0.35278,-0.54417 -0.0961,-0.0961 -0.0358,-0.1747 0.13397,-0.1747 0.16978,0 0.30869,-0.12701 0.30869,-0.28224 0,-0.15523 0.30786,-0.68586 0.68414,-1.17919 0.37627,-0.49332 0.61631,-1.0067 0.53341,-1.14083 -0.18336,-0.29669 0.49668,-1.71646 1.03689,-2.1648 0.21527,-0.17865 0.39139,-0.6079 0.39139,-0.95388 0,-0.34598 0.11034,-0.62906 0.2452,-0.62906 0.25621,0 1.07772,-1.47415 1.07772,-1.93391 0,-0.1458 0.29765,-0.65535 0.66145,-1.13232 0.36381,-0.47697 0.66146,-1.04102 0.66146,-1.25344 0,-0.21242 0.1786,-0.45475 0.39688,-0.53851 0.21828,-0.0838 0.39687,-0.31857 0.39687,-0.5218 0,-0.20322 0.24677,-0.68321 0.54837,-1.06663 0.30161,-0.38343 0.46175,-0.69714 0.35587,-0.69714 -0.10588,0 -0.0252,-0.20836 0.17923,-0.46302 0.64027,-0.79749 0.94076,-1.47664 1.27804,-2.88855 0.17964,-0.75195 0.55522,-1.57407 0.83464,-1.82694 0.27941,-0.25287 0.50802,-0.79146 0.50802,-1.19688 0,-0.40543 0.11906,-0.81072 0.26458,-0.90065 0.14552,-0.0899 0.26459,-0.54941 0.26459,-1.02104 0,-0.47163 0.13905,-0.99655 0.309,-1.16651 0.49714,-0.49714 1.04617,-2.18292 1.29451,-3.97481 0.12688,-0.91544 0.30994,-1.79269 0.40682,-1.94944 0.20648,-0.33409 0.49425,-1.41265 1.15358,-4.32362 0.55454,-2.44827 1.58479,-6.22572 2.52568,-9.26042 0.36094,-1.1641597 0.83319,-3.1286997 1.04944,-4.3656197 0.50089,-2.865007 1.02152,-4.770393 1.56489,-5.72719203 0.23586,-0.415306 0.64873,-1.48188097 0.91749,-2.37016697 1.75034,-5.784982 7.20771,-8.8744613 16.7739,-9.4958853 l 2.84427,-0.184764 v -7.475754 -7.475753 l -3.77031,-0.225124 c -2.07367,-0.123818 -5.55845,-0.230849 -7.74396,-0.237848 -3.70946,-0.01188 -4.02405,-0.0523 -4.73203,-0.608037 -0.41712,-0.327422 -0.86199,-0.595312 -0.9886,-0.595312 -0.12661,0 -0.80385,-0.276739 -1.50498,-0.614975 -1.14859,-0.554098 -2.37155,-0.966973 -7.58616,-2.561109 -0.87313,-0.266919 -2.77813,-0.92031 -4.23334,-1.451979 -1.4552,-0.531669 -3.5388,-1.139035 -4.6302,-1.349702 -1.09141,-0.210668 -3.11547,-0.734478 -4.49792,-1.164024 -1.38245,-0.429546 -3.88276,-0.964321 -5.55625,-1.188389 -1.67349,-0.224068 -3.99521,-0.653653 -5.15938,-0.954633 -1.16416,-0.30098 -3.42635,-0.644132 -5.02708,-0.762559 -1.60073,-0.118428 -4.33917,-0.47009 -6.08542,-0.781471 -4.73414,-0.844163 -8.24523,-1.304875 -10.31875,-1.353986 -1.01864,-0.02413 -2.68552,-0.200929 -3.70416,-0.392895 -1.01865,-0.191967 -3.87615,-0.480376 -6.35,-0.640911 -2.47386,-0.160534 -5.50995,-0.400317 -6.74688,-0.53285 -2.33975,-0.250697 -6.49033,-0.539643 -17.4625,-1.215666 -8.499963,-0.523704 -28.199873,-0.949041 -35.718753,-0.771197 -13.42653,0.317578 -27.64542,0.893771 -35.58645,1.442073 -2.18281,0.150716 -6.5286,0.39012 -9.65729,0.53201 -3.1287,0.141889 -6.76011,0.370259 -8.0698,0.507488 -2.80698,0.294116 -8.57303,0.742249 -13.75833,1.069289 -2.03729,0.128492 -6.08542,0.176489 -8.99583,0.106659 -2.91042,-0.06983 -7.07761,-0.0027 -9.26042,0.149252 -2.18281,0.151918 -7.12391,0.468284 -10.98021,0.703034 -12.83171,0.781124 -17.9543,1.309819 -18.80825,1.941168 -0.97905,0.723848 -1.74988,0.669273 -4.9381,-0.34962 l -0.59531,-0.19025 v 10.601163 10.601163 h 2.6229 c 2.82571,0 11.40494,0.921883 12.14168,1.304687 0.24692,0.128302 0.98474,0.372769 1.63958,0.543264 1.11688,0.290785 4.57499,1.747967 5.15938,2.174063 4.76793,3.4764473 6.69857,9.0523753 8.45557,24.420699 0.92645,8.10365 1.08904,9.31637 1.85877,13.86457 2.14189,12.65606 6.70992,32.30024 8.98119,38.62234 0.22876,0.63676 0.41593,1.31969 0.41593,1.51764 0,0.66373 2.85884,6.38365 4.01541,8.03396 0.62918,0.89778 1.32775,1.9129 1.55237,2.25582 0.49272,0.7522 5.3522,5.71444 6.86569,7.01087 1.87907,1.60959 5.57442,3.66564 9.65923,5.37432 5.63099,2.35543 19.10634,4.736 34.925,6.16988 5.14499,0.46636 33.06705,0.71695 40.08437,0.35973 z m -30.95625,-8.99054 c -11.80579,-0.63483 -15.95295,-0.98523 -22.19228,-1.87504 -5.05078,-0.72031 -16.17168,-3.17419 -17.48029,-3.85711 -0.37201,-0.19414 -0.8795,-0.35371 -1.12776,-0.35461 -0.24825,-7.9e-4 -1.03167,-0.34379 -1.74093,-0.76198 -0.70926,-0.41819 -1.7563,-0.92047 -2.32675,-1.11618 -6.67895,-2.29135 -12.54606,-11.63254 -15.85506,-25.24326 -0.53068,-2.18281 -1.18771,-4.80219 -1.46008,-5.82083 -1.74682,-6.5331 -4.14914,-22.05467 -4.75023,-30.69167 -0.90686,-13.0307027 -0.84075,-24.2803437 0.16639,-28.310414 0.2182,-0.873125 0.4951,-2.004219 0.61534,-2.513542 1.47789,-6.260386 7.8373,-11.691798 16.69544,-14.259169 4.78907,-1.388023 14.04797,-3.195861 19.17461,-3.74392 1.59348,-0.17035 2.98293,-0.361334 3.08768,-0.42441 0.23271,-0.140136 3.69032,-0.575405 7.08559,-0.891986 1.38244,-0.128901 3.5851,-0.361243 4.89479,-0.516315 13.63521,-1.614464 41.72452,-2.394451 58.208333,-1.616337 9.85323,0.465119 26.47725,1.753428 31.1765,2.416081 0.99426,0.140203 1.89273,0.20239 1.99661,0.138193 0.10387,-0.0642 1.79069,0.117837 3.7485,0.404519 1.95781,0.286682 4.45262,0.645017 5.54402,0.7963 4.96505,0.68822 7.31803,1.127999 12.07354,2.256585 2.93457,0.696437 7.63475,2.096734 8.36194,2.491223 0.25268,0.13708 0.59182,0.249236 0.75364,0.249236 0.16182,0 1.26476,0.463463 2.45099,1.029918 1.18622,0.566456 3.04974,1.306099 4.14114,1.643651 1.35042,0.417661 2.36475,0.940713 3.175,1.637221 5.83159,5.012968 6.23674,5.460606 6.87457,7.59546 1.89484,6.3421953 1.53147,17.6229593 -0.90341,28.045836 -2.46826,10.56578 -4.94065,18.12835 -8.34712,25.53229 -0.40171,0.87312 -1.06913,2.36141 -1.48314,3.30729 -0.41401,0.94589 -1.1736,2.42119 -1.68797,3.27844 -1.53269,2.55441 -2.12584,3.66648 -2.12584,3.98561 0,0.42473 -3.09462,5.42781 -3.8623,6.24418 -0.34959,0.37176 -0.63562,0.76763 -0.63562,0.87971 0,0.34659 -2.38498,3.92915 -3.54397,5.32352 -0.60477,0.7276 -1.41171,1.79917 -1.79319,2.38125 -2.96505,4.52426 -11.98375,11.25933 -18.59223,13.88451 -15.10931,6.00205 -52.648473,9.96354 -80.316453,8.47575 z"
       style="fill:#000000;stroke-width:0.26458335" />
  </g>
</svg>
